Coordinates
version=1
nRows=4
nColumns=63
inDegrees=yes

Units are S.I. units (second, meters, Newtons, ...)
If the header above contains a line with 'inDegrees', this indicates whether rotational values are in degrees (yes) or radians (no).

endheader
time	pelvis_tilt	pelvis_list	pelvis_rotation	pelvis_tx	pelvis_ty	pelvis_tz	hip_flexion_r	hip_adduction_r	hip_rotation_r	knee_angle_r	knee_angle_r_beta	ankle_angle_r	subtalar_angle_r	mtp_angle_r	hip_flexion_l	hip_adduction_l	hip_rotation_l	knee_angle_l	knee_angle_l_beta	ankle_angle_l	subtalar_angle_l	mtp_angle_l	L5_S1_Flex_Ext	L5_S1_Lat_Bending	L5_S1_axial_rotation	L4_L5_Flex_Ext	L4_L5_Lat_Bending	L4_L5_axial_rotation	L3_L4_Flex_Ext	L3_L4_Lat_Bending	L3_L4_axial_rotation	L2_L3_Flex_Ext	L2_L3_Lat_Bending	L2_L3_axial_rotation	L1_L2_Flex_Ext	L1_L2_Lat_Bending	L1_L2_axial_rotation	L1_T12_Flex_Ext	L1_T12_Lat_Bending	L1_T12_axial_rotation	Abs_r3	Abs_r2	Abs_r1	Abs_t1	Abs_t2	neck_flexion	neck_bending	neck_rotation	arm_flex_r	arm_add_r	arm_rot_r	elbow_flex_r	pro_sup_r	wrist_flex_r	wrist_dev_r	arm_flex_l	arm_add_l	arm_rot_l	elbow_flex_l	pro_sup_l	wrist_flex_l	wrist_dev_l
      0.00000000	      2.62439845	     -4.55169931	     97.80765656	      0.08087411	      0.89236109	      0.59320020	     11.23118170	      3.16946137	    -10.37497819	     20.72908210	      0.36179073	     43.41910294	     14.03549607	      0.00000000	      9.05425895	     -5.14369200	    -16.31660976	     16.14171184	      0.28172602	     45.94333866	     15.34596322	      0.00000000	      0.53353149	      0.52810830	     -0.08653342	      0.99082132	      0.70238404	     -0.09194175	      0.87653888	      1.28404252	     -0.09194175	      0.60977314	      1.28404252	     -0.07571674	      0.49543734	      1.07691844	     -0.07030840	      0.30485989	      0.81803975	     -0.06490006	      3.81096205	      5.97406670	     -0.48127290	      0.00000000	      0.00000000	     28.22369607	      2.68732724	     18.45036589	     25.68170414	     -9.61659152	     88.15164319	     43.84295819	     13.35548657	     -1.09484812	     11.57280707	     18.61643744	     -8.20238782	     56.31166137	     42.64512842	     87.75904449	     13.13851935	     18.59790163
      0.01666667	      2.53127406	     -4.17706861	     99.34151293	      0.07949147	      0.89276706	      0.59042260	     10.12033530	      3.04484899	    -11.40261151	     19.89496872	      0.34723271	     43.15108512	     13.65367292	      0.00000000	      8.81825167	     -5.01347135	    -15.33741739	     16.57264191	      0.28924717	     46.34892110	     15.82568701	      0.00000000	      0.53519876	      0.49083931	     -0.38335108	      0.99391761	      0.65281628	     -0.40731052	      0.87927804	      1.19342670	     -0.40731052	      0.61167866	      1.19342670	     -0.33543219	      0.49698556	      1.00091952	     -0.31147275	      0.30581257	      0.76031009	     -0.28751331	      3.82287119	      5.55247244	     -2.13208368	      0.00000000	      0.00000000	     28.20965861	      2.47892813	     17.04369739	     25.75696907	     -9.14629517	     90.22227616	     43.56483859	     13.22635431	     -0.96484452	     12.72319060	     17.76606435	     -8.68741042	     55.72674224	     43.05459478	     86.71946306	     12.48409392	     18.06437137
      0.03333333	      2.34809448	     -3.84042087	    100.44893120	      0.07852744	      0.89322122	      0.58823064	      9.19337859	      2.84684771	    -12.47929042	     19.27933624	      0.33648789	     42.99922716	     13.85555183	      0.00000000	      8.53117165	     -4.80781225	    -14.55705653	     16.84706461	      0.29403675	     46.59563538	     16.03543508	      0.00000000	      0.52610915	      0.45143078	     -0.58748330	      0.97703731	      0.60040294	     -0.62420101	      0.86434473	      1.09760881	     -0.62420101	      0.60129015	      1.09760881	     -0.51404789	      0.48854496	      0.92055766	     -0.47733018	      0.30061877	      0.69926628	     -0.44061248	      3.75794508	      5.10667532	     -3.26740589	      0.00000000	      0.00000000	     28.19284707	      2.37350796	     16.11381192	     25.86952626	     -8.76751819	     91.45164242	     43.34360106	     14.42073634	     -0.54722799	     12.31984941	     17.19677719	     -9.01187438	     55.47125368	     43.15848391	     85.57708178	     12.01950616	     17.27602010
      0.05000000	      2.22981327	     -3.57293985	    101.64530964	      0.07724256	      0.89364011	      0.58653793	      8.39065309	      2.64927965	    -14.00300213	     18.69080344	      0.32621606	     42.95700835	     14.62913988	      0.00000000	      8.37984081	     -4.59346168	    -13.19101085	     17.07454734	      0.29800707	     46.70966418	     15.80945597	      0.00000000	      0.52273256	      0.42442911	     -0.81023037	      0.97076664	      0.56449072	     -0.86086977	      0.85879732	      1.03195695	     -0.86086977	      0.59743104	      1.03195695	     -0.70895158	      0.48540945	      0.86549585	     -0.65831218	      0.29868938	      0.65744070	     -0.60767278	      3.73382640	      4.80122702	     -4.50625827	      0.00000000	      0.00000000	     28.17269158	      2.24037852	     15.52858643	     26.05553028	     -8.56451421	     92.44725562	     43.64386091	     11.43697790	     -1.05445395	     10.93116144	     16.68529040	     -9.23618212	     55.24829961	     43.26310241	     84.07018351	     11.26278498	     17.11790328
